<?xml version="1.0" encoding="UTF-8" standalone="no"?>
<svg
   width="177"
   height="21"
   viewBox="0 0 177 21"
   fill="none"
   version="1.1"
   id="svg10"
   xmlns="http://www.w3.org/2000/svg"
   xmlns:svg="http://www.w3.org/2000/svg">
  <rect
     width="177"
     height="21.000641"
     rx="5.0862074"
     fill="#000000"
     id="rect1"
     x="0"
     y="-0.00032066603"
     style="stroke-width:1.0086" />
  <g
     clip-path="url(#clip0_2011_43)"
     id="g4">
    <g
       filter="url(#filter0_d_2011_43)"
       id="g2">
      <g
         clip-path="url(#clip1_2011_43)"
         id="g1">
        <path
           d="m 12.9852,2.5 c 2.2378,0 4.143,0.78125 5.7143,2.343 0.752,0.75225 1.3237,1.612 1.7142,2.5785 0.3903,0.96675 0.586,1.99275 0.586,3.0785 0,1.0952 -0.1932,2.1215 -0.5785,3.0782 -0.3857,0.957 -0.955,1.8025 -1.707,2.5358 -0.7807,0.7712 -1.6665,1.362 -2.6572,1.7715 -0.9903,0.4095 -2.0143,0.6142 -3.0713,0.6142 -1.057,0 -2.069,-0.202 -3.0357,-0.6072 C 8.9835,17.488 8.11675,16.9022 7.35,16.1357 6.58325,15.3692 6,14.5047 5.6,13.5427 5.2,12.5807 5,11.5667 5,10.5 5,9.44275 5.20225,8.42625 5.607,7.45 6.01175,6.47375 6.6,5.6 7.37125,4.8285 8.895,3.2765 10.7663,2.5 12.9852,2.5 Z m 0.029,1.443 C 11.1857,3.943 9.6475,4.58125 8.39975,5.85725 7.771,6.4955 7.28775,7.212 6.94975,8.00725 6.61125,8.8025 6.4425,9.6335 6.4425,10.5002 c 0,0.8573 0.16875,1.6835 0.50725,2.4783 0.33825,0.7957 0.82125,1.5052 1.45,2.129 0.6285,0.624 1.33775,1.0997 2.12875,1.4287 0.7902,0.3285 1.619,0.4928 2.4857,0.4928 0.857,0 1.6875,-0.1663 2.4933,-0.4998 0.8047,-0.3337 1.5302,-0.8142 2.1782,-1.4427 1.2475,-1.219 1.871,-2.7475 1.871,-4.586 0,-0.88575 -0.162,-1.72375 -0.4857,-2.51425 -0.3233,-0.7905 -0.795,-1.495 -1.4135,-2.1145 C 16.371,4.586 14.8237,3.943 13.0142,3.943 Z M 12.914,9.17175 11.8422,9.729 C 11.7277,9.49125 11.5875,9.32425 11.421,9.229 11.2542,9.134 11.0995,9.08625 10.9565,9.08625 c -0.714,0 -1.0715,0.47125 -1.0715,1.41425 0,0.4285 0.0905,0.771 0.2712,1.0282 0.181,0.2573 0.4478,0.386 0.8003,0.386 0.4667,0 0.7952,-0.2287 0.986,-0.6857 l 0.9855,0.5 c -0.2095,0.3907 -0.5,0.6977 -0.8715,0.9215 -0.371,0.224 -0.7808,0.3357 -1.2285,0.3357 -0.7143,0 -1.29075,-0.2187 -1.72875,-0.6572 -0.438,-0.438 -0.657,-1.0475 -0.657,-1.8283 0,-0.76195 0.2215,-1.36645 0.66425,-1.8142 0.44275,-0.4475 1.0022,-0.6715 1.6787,-0.6715 0.9908,-5e-4 1.7,0.38525 2.1288,1.15675 z m 4.6142,0 L 16.471,9.729 C 16.3567,9.49125 16.216,9.32425 16.0495,9.229 15.8825,9.134 15.7227,9.08625 15.571,9.08625 c -0.7143,0 -1.0718,0.47125 -1.0718,1.41425 0,0.4285 0.0908,0.771 0.2715,1.0282 0.1808,0.2573 0.4473,0.386 0.8003,0.386 0.4662,0 0.795,-0.2287 0.9852,-0.6857 l 1,0.5 c -0.2187,0.3907 -0.5142,0.6977 -0.8852,0.9215 -0.3715,0.224 -0.7763,0.3357 -1.2143,0.3357 -0.724,0 -1.3022,-0.2187 -1.7352,-0.6572 -0.434,-0.438 -0.6505,-1.0475 -0.6505,-1.8283 0,-0.76195 0.2212,-1.36645 0.6645,-1.8142 0.4425,-0.4475 1.002,-0.6715 1.6782,-0.6715 0.9905,-5e-4 1.6958,0.38525 2.1145,1.15675 z"
           fill="#ffffff"
           id="path1" />
      </g>
    </g>
    <g
       filter="url(#filter1_d_2011_43)"
       id="g3">
      <path
         d="M 24.0387,15.5 V 6.04545 h 1.4265 V 14.272 h 4.2841 V 15.5 Z m 7.2271,0 V 8.40909 h 1.3803 V 15.5 Z m 0.6971,-8.18502 c -0.2401,0 -0.4463,-0.08001 -0.6186,-0.24005 -0.1693,-0.16312 -0.2539,-0.35701 -0.2539,-0.58168 0,-0.22774 0.0846,-0.42164 0.2539,-0.58167 0.1723,-0.16312 0.3785,-0.24468 0.6186,-0.24468 0.24,0 0.4447,0.08156 0.614,0.24468 0.1723,0.16003 0.2585,0.35393 0.2585,0.58167 0,0.22467 -0.0862,0.41856 -0.2585,0.58168 -0.1693,0.16004 -0.374,0.24005 -0.614,0.24005 z M 37.49,15.6431 c -0.6864,0 -1.2773,-0.1554 -1.7728,-0.4663 -0.4924,-0.3139 -0.8709,-0.7463 -1.1356,-1.2972 -0.2647,-0.5509 -0.397,-1.1818 -0.397,-1.8927 0,-0.7202 0.1354,-1.3557 0.4062,-1.9066 0.2708,-0.55402 0.6525,-0.98643 1.1449,-1.29728 0.4924,-0.31084 1.0726,-0.46626 1.7404,-0.46626 0.5386,0 1.0187,0.10002 1.4404,0.30007 0.4216,0.19697 0.7617,0.47396 1.0202,0.83097 0.2616,0.357 0.417,0.774 0.4663,1.2511 H 39.0596 C 38.9857,10.3665 38.8164,10.0803 38.5518,9.8402 38.2902,9.60014 37.9393,9.48011 37.4992,9.48011 c -0.3847,0 -0.7217,0.10156 -1.011,0.30469 -0.2862,0.20005 -0.5094,0.4863 -0.6694,0.8587 -0.16,0.3693 -0.2401,0.8063 -0.2401,1.311 0,0.5171 0.0785,0.9633 0.2355,1.3388 0.1569,0.3755 0.3785,0.6663 0.6648,0.8725 0.2893,0.2062 0.6293,0.3093 1.0202,0.3093 0.2616,0 0.4986,-0.0477 0.7109,-0.1431 0.2155,-0.0985 0.3955,-0.2385 0.5402,-0.4201 0.1477,-0.1816 0.2508,-0.4001 0.3093,-0.6555 h 1.3434 c -0.0493,0.4586 -0.1985,0.8679 -0.4478,1.228 -0.2493,0.3601 -0.5833,0.6432 -1.0018,0.8494 -0.4155,0.2062 -0.9033,0.3093 -1.4634,0.3093 z m 7.4452,0 c -0.6986,0 -1.3003,-0.1493 -1.8051,-0.4478 -0.5016,-0.3016 -0.8894,-0.7248 -1.1633,-1.2695 -0.2708,-0.5478 -0.4063,-1.1895 -0.4063,-1.9251 0,-0.7263 0.1355,-1.3665 0.4063,-1.9204 0.2739,-0.55402 0.6555,-0.98643 1.1449,-1.29728 0.4924,-0.31084 1.0679,-0.46626 1.7265,-0.46626 0.4001,0 0.7879,0.06617 1.1634,0.19851 0.3755,0.13234 0.7125,0.34008 1.011,0.62322 0.2985,0.28315 0.534,0.65093 0.7063,1.10331 0.1724,0.4494 0.2585,0.9957 0.2585,1.6389 V 12.37 h -5.6367 v -1.0341 h 4.2841 c 0,-0.3631 -0.0738,-0.6847 -0.2216,-0.9648 C 46.2555,10.0879 46.0478,9.86482 45.78,9.7017 45.5153,9.53859 45.2045,9.45703 44.8475,9.45703 c -0.3878,0 -0.7264,0.09541 -1.0157,0.28622 -0.2862,0.18774 -0.5078,0.43395 -0.6647,0.73865 -0.1539,0.3016 -0.2308,0.6294 -0.2308,0.9833 v 0.8079 c 0,0.4739 0.083,0.8771 0.2492,1.2095 0.1693,0.3324 0.4048,0.5863 0.7064,0.7617 0.3016,0.1724 0.654,0.2585 1.0571,0.2585 0.2616,0 0.5002,-0.0369 0.7156,-0.1108 0.2154,-0.0769 0.4016,-0.1908 0.5586,-0.3416 0.1569,-0.1508 0.277,-0.337 0.3601,-0.5586 l 1.3064,0.2355 c -0.1046,0.3847 -0.2923,0.7217 -0.5632,1.011 -0.2677,0.2862 -0.6047,0.5093 -1.011,0.6694 -0.4032,0.1569 -0.8633,0.2354 -1.3803,0.2354 z m 5.9541,-4.3533 V 15.5 H 49.509 V 8.40909 h 1.3249 v 1.15412 h 0.0877 c 0.1631,-0.37548 0.4186,-0.67709 0.7663,-0.90483 0.3509,-0.22775 0.7925,-0.34162 1.325,-0.34162 0.4832,0 0.9063,0.10156 1.2695,0.30469 0.3632,0.20004 0.6448,0.49858 0.8448,0.89559 0.2001,0.39702 0.3001,0.88786 0.3001,1.47266 V 15.5 H 54.047 v -4.3441 c 0,-0.514 -0.1339,-0.9156 -0.4017,-1.20491 -0.2677,-0.29237 -0.6355,-0.43856 -1.1033,-0.43856 -0.3201,0 -0.6048,0.06924 -0.8541,0.20774 -0.2462,0.13849 -0.4416,0.34163 -0.5863,0.60933 -0.1415,0.2647 -0.2123,0.5848 -0.2123,0.9603 z M 62.5921,10.1403 61.341,10.3619 C 61.2887,10.2018 61.2056,10.0495 61.0917,9.90483 60.9809,9.76018 60.8301,9.64169 60.6393,9.54936 60.4485,9.45703 60.2099,9.41086 59.9237,9.41086 c -0.3908,0 -0.7171,0.08772 -0.9787,0.26314 -0.2616,0.17235 -0.3924,0.3955 -0.3924,0.6694 0,0.237 0.0877,0.4278 0.2632,0.5724 0.1754,0.1447 0.4585,0.2632 0.8494,0.3555 l 1.1264,0.2585 c 0.6525,0.1508 1.1388,0.3832 1.4588,0.6971 0.3201,0.3139 0.4801,0.7217 0.4801,1.2234 0,0.4247 -0.1231,0.8032 -0.3693,1.1356 -0.2431,0.3293 -0.5832,0.5879 -1.0202,0.7756 -0.434,0.1877 -0.9372,0.2816 -1.5096,0.2816 -0.794,0 -1.4419,-0.1693 -1.9435,-0.5078 -0.5017,-0.3416 -0.8095,-0.8264 -0.9233,-1.4542 l 1.3341,-0.2031 c 0.0831,0.3478 0.2539,0.6109 0.5125,0.7894 0.2585,0.1754 0.5955,0.2631 1.011,0.2631 0.4524,0 0.814,-0.0938 1.0848,-0.2816 0.2709,-0.1908 0.4063,-0.4231 0.4063,-0.6971 0,-0.2215 -0.0831,-0.4077 -0.2493,-0.5586 -0.1631,-0.1508 -0.4139,-0.2646 -0.7525,-0.3416 l -1.2003,-0.2631 c -0.6617,-0.1508 -1.151,-0.3909 -1.468,-0.7202 -0.3139,-0.3293 -0.4709,-0.7463 -0.4709,-1.251 0,-0.4186 0.117,-0.78485 0.3509,-1.09877 0.2339,-0.31392 0.557,-0.55859 0.9694,-0.73402 0.4124,-0.1785 0.8848,-0.26775 1.4173,-0.26775 0.7663,0 1.3695,0.16619 1.8096,0.49858 0.4401,0.32931 0.731,0.77095 0.8726,1.32496 z m 4.7122,5.5028 c -0.6986,0 -1.3003,-0.1493 -1.805,-0.4478 -0.5017,-0.3016 -0.8895,-0.7248 -1.1634,-1.2695 -0.2708,-0.5478 -0.4062,-1.1895 -0.4062,-1.9251 0,-0.7263 0.1354,-1.3665 0.4062,-1.9204 0.2739,-0.55402 0.6556,-0.98643 1.1449,-1.29728 0.4924,-0.31084 1.068,-0.46626 1.7266,-0.46626 0.4001,0 0.7879,0.06617 1.1633,0.19851 0.3755,0.13234 0.7125,0.34008 1.011,0.62322 0.2986,0.28315 0.534,0.65093 0.7064,1.10331 0.1723,0.4494 0.2585,0.9957 0.2585,1.6389 V 12.37 h -5.6367 v -1.0341 h 4.284 c 0,-0.3631 -0.0738,-0.6847 -0.2215,-0.9648 C 68.6246,10.0879 68.4169,9.86482 68.1491,9.7017 67.8845,9.53859 67.5736,9.45703 67.2166,9.45703 c -0.3878,0 -0.7263,0.09541 -1.0156,0.28622 -0.2862,0.18774 -0.5078,0.43395 -0.6648,0.73865 -0.1539,0.3016 -0.2308,0.6294 -0.2308,0.9833 v 0.8079 c 0,0.4739 0.0831,0.8771 0.2493,1.2095 0.1692,0.3324 0.4047,0.5863 0.7063,0.7617 0.3016,0.1724 0.654,0.2585 1.0572,0.2585 0.2616,0 0.5001,-0.0369 0.7155,-0.1108 0.2155,-0.0769 0.4017,-0.1908 0.5586,-0.3416 0.157,-0.1508 0.277,-0.337 0.3601,-0.5586 l 1.3065,0.2355 c -0.1047,0.3847 -0.2924,0.7217 -0.5632,1.011 -0.2678,0.2862 -0.6048,0.5093 -1.0111,0.6694 -0.4031,0.1569 -0.8632,0.2354 -1.3803,0.2354 z"
         fill="#e8e8e8"
         id="path2"
         style="display:none" />
      <path
         d="M 78.906275,15.5 V 6.04545 h 3.9425 c 0.7079,0 1.3003,0.10003 1.7774,0.30007 0.4801,0.20005 0.8402,0.48012 1.0802,0.8402 0.2431,0.36009 0.3647,0.77711 0.3647,1.25107 0,0.36008 -0.0754,0.6817 -0.2262,0.96484 -0.1508,0.28007 -0.3585,0.51243 -0.6232,0.69707 -0.2647,0.1847 -0.5709,0.3139 -0.9187,0.3878 v 0.0923 c 0.3816,0.0185 0.734,0.1216 1.0572,0.3093 0.3262,0.1878 0.5878,0.4494 0.7848,0.7848 0.1969,0.3324 0.2954,0.7264 0.2954,1.1819 0,0.5078 -0.1292,0.9617 -0.3878,1.3618 -0.2585,0.397 -0.6324,0.711 -1.1218,0.9418 -0.4893,0.2277 -1.0833,0.3416 -1.7819,0.3416 z m 2.2852,-1.842 h 1.4126 c 0.4955,0 0.8602,-0.0938 1.0941,-0.2816 0.237,-0.1877 0.3555,-0.4493 0.3555,-0.7848 0,-0.2431 -0.0569,-0.4524 -0.1708,-0.6278 -0.1139,-0.1785 -0.2754,-0.3155 -0.4847,-0.4109 -0.2093,-0.0985 -0.4601,-0.1477 -0.7525,-0.1477 h -1.4542 z m 0,-3.72547 h 1.2649 c 0.2493,0 0.4709,-0.04155 0.6648,-0.12465 0.1939,-0.0831 0.3447,-0.20312 0.4524,-0.36008 0.1108,-0.15696 0.1662,-0.34624 0.1662,-0.56783 0,-0.317 -0.1123,-0.56629 -0.337,-0.74787 -0.2247,-0.18158 -0.5278,-0.27237 -0.9095,-0.27237 h -1.3018 z m 5.8768,-3.88708 h 2.5529 l 1.9989,3.95635 h 0.0831 l 1.9989,-3.95635 h 2.553 l -3.4578,6.29685 V 15.5 h -2.2713 V 12.3423 Z M 101.54778,9.90483 V 11.6406 H 97.171375 V 9.90483 Z m 9.64,-3.85938 V 15.5 h -1.939 l -3.762,-5.4567 h -0.06 V 15.5 h -2.2851 V 6.04545 h 1.9666 l 3.7205,5.44745 h 0.079 V 6.04545 Z m 10.019,3.42543 h -2.308 c -0.031,-0.23698 -0.094,-0.45088 -0.189,-0.64169 -0.096,-0.19082 -0.222,-0.35393 -0.379,-0.48935 -0.157,-0.13541 -0.343,-0.23852 -0.558,-0.3093 -0.213,-0.07387 -0.448,-0.1108 -0.707,-0.1108 -0.458,0 -0.854,0.11234 -1.186,0.33701 -0.329,0.22466 -0.583,0.54936 -0.762,0.97407 -0.175,0.42472 -0.263,0.93868 -0.263,1.54188 0,0.6279 0.089,1.1541 0.268,1.5789 0.181,0.4216 0.435,0.7401 0.762,0.9556 0.329,0.2123 0.718,0.3185 1.167,0.3185 0.253,0 0.482,-0.0323 0.688,-0.0969 0.21,-0.0647 0.393,-0.1585 0.55,-0.2816 0.16,-0.1262 0.291,-0.2786 0.392,-0.4571 0.105,-0.1816 0.177,-0.3862 0.217,-0.614 l 2.308,0.0139 c -0.04,0.4185 -0.161,0.8309 -0.364,1.2372 -0.2,0.4062 -0.476,0.7771 -0.827,1.1126 -0.351,0.3324 -0.778,0.597 -1.283,0.794 -0.502,0.197 -1.077,0.2955 -1.727,0.2955 -0.855,0 -1.622,-0.1878 -2.299,-0.5633 -0.674,-0.3785 -1.206,-0.9294 -1.597,-1.6527 -0.391,-0.7232 -0.586,-1.6034 -0.586,-2.6406 0,-1.04022 0.198,-1.92197 0.595,-2.64522 0.397,-0.72324 0.934,-1.2726 1.611,-1.64808 0.677,-0.37547 1.436,-0.56321 2.276,-0.56321 0.573,0 1.102,0.08002 1.588,0.24006 0.487,0.15696 0.914,0.38778 1.284,0.69247 0.369,0.30161 0.669,0.67247 0.9,1.11257 0.231,0.44011 0.374,0.9433 0.429,1.50959 z m 5.846,0.43395 v 1.73577 h -4.376 V 9.90483 Z m 6.704,-1.02486 c -0.031,-0.33854 -0.168,-0.60168 -0.411,-0.78942 -0.24,-0.19081 -0.583,-0.28622 -1.029,-0.28622 -0.296,0 -0.542,0.03847 -0.739,0.11541 -0.197,0.07694 -0.344,0.18312 -0.443,0.31854 -0.098,0.13234 -0.149,0.28468 -0.152,0.45703 -0.006,0.14157 0.021,0.26622 0.083,0.37393 0.064,0.10772 0.157,0.20313 0.277,0.28623 0.123,0.08002 0.271,0.1508 0.443,0.21235 0.172,0.06156 0.366,0.11542 0.582,0.16158 l 0.812,0.18466 c 0.468,0.10154 0.88,0.23694 1.237,0.40624 0.36,0.1693 0.662,0.3709 0.905,0.6048 0.246,0.2339 0.433,0.5032 0.559,0.8079 0.126,0.3046 0.191,0.6463 0.194,1.0248 -0.003,0.5971 -0.154,1.1095 -0.453,1.5373 -0.298,0.4278 -0.728,0.7556 -1.288,0.9833 -0.557,0.2278 -1.229,0.3416 -2.017,0.3416 -0.791,0 -1.48,-0.1185 -2.068,-0.3554 -0.588,-0.237 -1.045,-0.5971 -1.371,-1.0803 -0.327,-0.4832 -0.494,-1.0941 -0.504,-1.8327 h 2.189 c 0.018,0.3046 0.1,0.5586 0.244,0.7617 0.145,0.2031 0.343,0.357 0.596,0.4616 0.255,0.1047 0.551,0.157 0.886,0.157 0.308,0 0.57,-0.0416 0.785,-0.1247 0.218,-0.0831 0.386,-0.1985 0.503,-0.3462 0.117,-0.1477 0.177,-0.317 0.18,-0.5078 -0.003,-0.1785 -0.058,-0.3309 -0.166,-0.457 -0.108,-0.1293 -0.274,-0.2401 -0.499,-0.3324 -0.221,-0.0954 -0.504,-0.1831 -0.849,-0.2632 l -0.988,-0.2308 c -0.819,-0.1877 -1.463,-0.4909 -1.934,-0.9094 -0.471,-0.4217 -0.705,-0.99104 -0.702,-1.70813 -0.003,-0.58475 0.154,-1.09718 0.471,-1.53729 0.317,-0.4401 0.756,-0.78326 1.316,-1.02947 0.56,-0.24621 1.198,-0.36932 1.915,-0.36932 0.733,0 1.368,0.12465 1.907,0.37394 0.542,0.24621 0.962,0.59244 1.26,1.0387 0.299,0.44626 0.451,0.96331 0.457,1.55114 z m 5.225,6.62003 h -2.456 l 3.19,-9.45455 h 3.042 l 3.19,9.45455 h -2.456 l -2.22,-7.07245 h -0.074 z m -0.328,-3.7209 h 5.134 v 1.7358 h -5.134 z m 12.85,-1.87427 v 1.73577 h -4.376 V 9.90483 Z m 1.46,4.02557 v -1.782 l 3.873,-6.10295 h 1.584 v 2.41904 h -0.919 l -2.267,3.59161 V 12.13 h 5.609 v 1.8004 z m 4.566,1.5696 v -2.1143 l 0.046,-0.7802 V 6.04545 h 2.137 V 15.5 Z m 5.711,0.1339 c -0.332,0 -0.617,-0.117 -0.854,-0.3509 -0.233,-0.2339 -0.349,-0.517 -0.346,-0.8494 -0.003,-0.3262 0.113,-0.6048 0.346,-0.8356 0.237,-0.2339 0.522,-0.3508 0.854,-0.3508 0.314,0 0.591,0.1169 0.831,0.3508 0.244,0.2308 0.367,0.5094 0.37,0.8356 -0.003,0.2216 -0.062,0.4232 -0.176,0.6047 -0.11,0.1816 -0.257,0.3263 -0.438,0.434 -0.179,0.1077 -0.374,0.1616 -0.587,0.1616 z m 6.177,0.0969 c -0.824,0 -1.535,-0.1954 -2.132,-0.5863 -0.598,-0.3939 -1.058,-0.9587 -1.381,-1.6942 -0.323,-0.7387 -0.483,-1.6266 -0.48,-2.6637 0.003,-1.03719 0.165,-1.9174 0.485,-2.64065 0.323,-0.72633 0.782,-1.27876 1.376,-1.65731 0.597,-0.38163 1.308,-0.57245 2.132,-0.57245 0.825,0 1.536,0.19082 2.133,0.57245 0.6,0.37855 1.062,0.93098 1.385,1.65731 0.323,0.72633 0.483,1.60653 0.48,2.64065 0,1.0402 -0.161,1.9297 -0.485,2.6683 -0.323,0.7386 -0.783,1.3034 -1.38,1.6942 -0.594,0.3878 -1.305,0.5817 -2.133,0.5817 z m 0,-1.8697 c 0.493,0 0.891,-0.2508 1.196,-0.7524 0.305,-0.5048 0.455,-1.2788 0.452,-2.3221 0,-0.6833 -0.069,-1.24647 -0.207,-1.68966 -0.139,-0.44626 -0.331,-0.77864 -0.577,-0.99716 -0.247,-0.21851 -0.534,-0.32776 -0.864,-0.32776 -0.489,0 -0.885,0.24775 -1.186,0.74325 -0.302,0.49242 -0.454,1.24952 -0.457,2.27133 -0.003,0.6924 0.063,1.2664 0.198,1.7219 0.139,0.4555 0.333,0.7956 0.582,1.0203 0.249,0.2216 0.537,0.3323 0.863,0.3323 z"
         fill="#ffffff"
         id="path3" />
      <text
         xml:space="preserve"
         style="font-size:13.3333px;line-height:0;font-family:'B&amp;H LucidaBright';-inkscape-font-specification:'B&amp;H LucidaBright';letter-spacing:-1px;fill:#ffffff;stroke-width:1.00566"
         x="22.214396"
         y="15.362058"
         id="text10"
         transform="scale(0.9943764,1.0056554)"><tspan
           id="tspan10"
           x="22.214396"
           y="15.362058"
           style="font-style:normal;font-variant:normal;font-weight:500;font-stretch:normal;font-size:13.3333px;font-family:Nunito;-inkscape-font-specification:'Nunito Medium';letter-spacing:-1px;stroke-width:1.00566">Лицензия</tspan></text>
    </g>
  </g>
  <rect
     x="0.61034489"
     y="0.59969771"
     width="175.77933"
     height="19.800604"
     rx="4.475862"
     stroke="url(#paint0_linear_2011_43)"
     stroke-opacity="0.88"
     stroke-width="1.21032"
     id="rect4"
     style="stroke:url(#paint0_linear_2011_43)" />
  <defs
     id="defs10">
    <filter
       id="filter0_d_2011_43"
       x="-0.60028201"
       y="-3.10028"
       width="27.2006"
       height="27.2006"
       filterUnits="userSpaceOnUse"
       color-interpolation-filters="sRGB">
      <feFlood
         flood-opacity="0"
         result="BackgroundImageFix"
         id="feFlood4" />
      <feColorMatrix
         in="SourceAlpha"
         type="matrix"
         values="0 0 0 0 0 0 0 0 0 0 0 0 0 0 0 0 0 0 127 0"
         result="hardAlpha"
         id="feColorMatrix4" />
      <feOffset
         id="feOffset4" />
      <feGaussianBlur
         stdDeviation="2.80014"
         id="feGaussianBlur4" />
      <feComposite
         in2="hardAlpha"
         operator="out"
         id="feComposite4" />
      <feColorMatrix
         type="matrix"
         values="0 0 0 0 0 0 0 0 0 0 0 0 0 0 0 0 0 0 0.25 0"
         id="feColorMatrix5" />
      <feBlend
         mode="normal"
         in2="BackgroundImageFix"
         result="effect1_dropShadow_2011_43"
         id="feBlend5" />
      <feBlend
         mode="normal"
         in="SourceGraphic"
         in2="effect1_dropShadow_2011_43"
         result="shape"
         id="feBlend6" />
    </filter>
    <filter
       id="filter1_d_2011_43"
       x="17.2857"
       y="-3.2142899"
       width="157.429"
       height="27.4286"
       filterUnits="userSpaceOnUse"
       color-interpolation-filters="sRGB">
      <feFlood
         flood-opacity="0"
         result="BackgroundImageFix"
         id="feFlood6" />
      <feColorMatrix
         in="SourceAlpha"
         type="matrix"
         values="0 0 0 0 0 0 0 0 0 0 0 0 0 0 0 0 0 0 127 0"
         result="hardAlpha"
         id="feColorMatrix6" />
      <feOffset
         id="feOffset6" />
      <feGaussianBlur
         stdDeviation="2.85714"
         id="feGaussianBlur6" />
      <feComposite
         in2="hardAlpha"
         operator="out"
         id="feComposite6" />
      <feColorMatrix
         type="matrix"
         values="0 0 0 0 0 0 0 0 0 0 0 0 0 0 0 0 0 0 0.25 0"
         id="feColorMatrix7" />
      <feBlend
         mode="normal"
         in2="BackgroundImageFix"
         result="effect1_dropShadow_2011_43"
         id="feBlend7" />
      <feBlend
         mode="normal"
         in="SourceGraphic"
         in2="effect1_dropShadow_2011_43"
         result="shape"
         id="feBlend8" />
    </filter>
    <linearGradient
       id="paint0_linear_2011_43"
       x1="0"
       y1="10.5"
       x2="174"
       y2="10.5"
       gradientUnits="userSpaceOnUse"
       gradientTransform="matrix(1.0172414,0,0,1.0000305,0,-3.2066604e-4)">
      <stop
         stop-color="#A5B2AC"
         id="stop8" />
      <stop
         offset="1"
         stop-color="#ECF0ED"
         id="stop9" />
    </linearGradient>
    <clipPath
       id="clip0_2011_43">
      <rect
         width="174"
         height="21"
         rx="5"
         fill="#ffffff"
         id="rect9"
         x="0"
         y="0" />
    </clipPath>
    <clipPath
       id="clip1_2011_43">
      <rect
         width="16"
         height="16"
         fill="#ffffff"
         transform="translate(5,2.5)"
         id="rect10"
         x="0"
         y="0" />
    </clipPath>
  </defs>
</svg>
