<?xml version="1.0" encoding="UTF-8" standalone="no"?>
<svg
   width="79"
   height="21"
   viewBox="0 0 79 21"
   fill="none"
   version="1.1"
   id="svg10"
   sodipodi:docname="terrbile.svg"
   xmlns:inkscape="http://www.inkscape.org/namespaces/inkscape"
   xmlns:sodipodi="http://sodipodi.sourceforge.net/DTD/sodipodi-0.dtd"
   xmlns="http://www.w3.org/2000/svg"
   xmlns:svg="http://www.w3.org/2000/svg">
  <sodipodi:namedview
     id="namedview10"
     pagecolor="#ffffff"
     bordercolor="#000000"
     borderopacity="0.25"
     inkscape:showpageshadow="2"
     inkscape:pageopacity="0.0"
     inkscape:pagecheckerboard="0"
     inkscape:deskcolor="#d1d1d1"
     inkscape:zoom="12.443038"
     inkscape:cx="39.5"
     inkscape:cy="10.527976"
     inkscape:window-width="1536"
     inkscape:window-height="811"
     inkscape:window-x="0"
     inkscape:window-y="0"
     inkscape:window-maximized="1"
     inkscape:current-layer="svg10" />
  <g
     clip-path="url(#clip0_2013_84)"
     id="g4">
    <rect
       width="79"
       height="21"
       rx="5"
       fill="#000000"
       id="rect1"
       x="0"
       y="0" />
    <g
       filter="url(#filter0_d_2013_84)"
       id="g2">
      <g
         clip-path="url(#clip1_2013_84)"
         id="g1">
        <path
           d="M 9.10529,6.43311 5.00272,10.132 H 5 v 2.4364 c 0,1.1013 1.08034,1.9985 2.40684,1.9985 h 2.52991 c 1.32645,0 2.40685,-0.8972 2.40685,-1.9985 v -1.601 h 1.3128 v 1.601 c 0,0.9592 0.8197,1.763 1.9075,1.9546 l 0.186,-0.2161 1.061,-1.2335 -1.9267,-1.4122 1.658,-1.2148 -0.5761,-0.3144 H 6.26357 l 3.4188,-3.08107 z m 7.70561,1.10574 -0.2687,0.64473 3.197,1.94842 h -2.0838 l 0.3943,0.2151 -1.7935,1.3142 1.744,1.2782 -1.3998,1.6274 h 1.9928 C 19.9197,14.5669 21,13.6697 21,12.5684 V 10.132 Z"
           fill="#ffffff"
           id="path1"
           style="display:inline" />
      </g>
    </g>
    <g
       filter="url(#filter1_d_2013_84)"
       id="g3">
      <path
         d="M 23.4062,7.90128 V 6.04545 h 7.9912 V 7.90128 H 28.5305 V 15.5 H 26.2777 V 7.90128 Z m 11.3935,7.73262 c -0.7417,0 -1.3819,-0.1462 -1.9204,-0.4386 -0.5356,-0.2954 -0.948,-0.7155 -1.2373,-1.2603 -0.2862,-0.5478 -0.4293,-1.1987 -0.4293,-1.9528 0,-0.7324 0.1447,-1.3726 0.434,-1.9204 0.2893,-0.55091 0.697,-0.97871 1.2233,-1.28339 0.5263,-0.30777 1.1464,-0.46165 1.8605,-0.46165 0.5047,0 0.9663,0.07848 1.3849,0.23544 0.4186,0.15696 0.7802,0.38932 1.0849,0.69709 0.3047,0.30776 0.5416,0.68785 0.7109,1.14031 0.1693,0.4493 0.2539,0.9648 0.2539,1.5465 v 0.5632 h -6.163 v -1.3111 h 4.0625 c -0.0031,-0.24 -0.06,-0.4539 -0.1708,-0.6417 -0.1108,-0.1877 -0.2631,-0.3339 -0.457,-0.4385 -0.1908,-0.1078 -0.4109,-0.16162 -0.6602,-0.16162 -0.2523,0 -0.4785,0.05692 -0.6786,0.17082 -0.2,0.1108 -0.3585,0.2631 -0.4755,0.457 -0.1169,0.1908 -0.1785,0.4078 -0.1846,0.6509 v 1.3342 c 0,0.2893 0.0569,0.5432 0.1708,0.7617 0.1138,0.2155 0.2754,0.3832 0.4847,0.5032 0.2093,0.12 0.4586,0.1801 0.7479,0.1801 0.2,0 0.3816,-0.0277 0.5447,-0.0831 0.1631,-0.0554 0.3032,-0.137 0.4201,-0.2447 0.117,-0.1077 0.2047,-0.2401 0.2631,-0.397 l 2.0728,0.06 c -0.0861,0.4647 -0.2754,0.8694 -0.5678,1.2141 -0.2893,0.3416 -0.6694,0.6079 -1.1403,0.7987 -0.4708,0.1877 -1.0156,0.2816 -1.6342,0.2816 z M 39.3181,15.5 V 8.40909 h 2.1928 V 9.7017 h 0.0739 c 0.1292,-0.4678 0.3401,-0.81558 0.6324,-1.04332 0.2924,-0.23083 0.6325,-0.34624 1.0203,-0.34624 0.1046,0 0.2123,0.0077 0.3231,0.02309 0.1108,0.01231 0.2139,0.03231 0.3093,0.06001 v 1.96196 c -0.1077,-0.0369 -0.2493,-0.0661 -0.4247,-0.0877 -0.1723,-0.0215 -0.3262,-0.0323 -0.4616,-0.0323 -0.2678,0 -0.5094,0.06 -0.7248,0.1801 -0.2124,0.1169 -0.3801,0.2816 -0.5032,0.4939 -0.12,0.2093 -0.1801,0.4555 -0.1801,0.7387 V 15.5 Z m 5.4717,0 V 8.40909 h 2.1928 V 9.7017 h 0.0739 c 0.1292,-0.4678 0.34,-0.81558 0.6324,-1.04332 0.2924,-0.23083 0.6325,-0.34624 1.0203,-0.34624 0.1046,0 0.2123,0.0077 0.3231,0.02309 0.1108,0.01231 0.2139,0.03231 0.3093,0.06001 v 1.96196 c -0.1077,-0.0369 -0.2493,-0.0661 -0.4247,-0.0877 -0.1724,-0.0215 -0.3262,-0.0323 -0.4617,-0.0323 -0.2677,0 -0.5093,0.06 -0.7247,0.1801 -0.2124,0.1169 -0.3801,0.2816 -0.5032,0.4939 -0.1201,0.2093 -0.1801,0.4555 -0.1801,0.7387 V 15.5 Z m 5.4716,0 V 8.40909 h 2.2575 V 15.5 Z m 1.1311,-7.91726 c -0.317,0 -0.5894,-0.10464 -0.8171,-0.31392 -0.2278,-0.21236 -0.3417,-0.4678 -0.3417,-0.76634 0,-0.29545 0.1139,-0.54782 0.3417,-0.7571 0.2277,-0.21236 0.5001,-0.31853 0.8171,-0.31853 0.3201,0 0.5924,0.10617 0.8171,0.31853 0.2277,0.20928 0.3416,0.46165 0.3416,0.7571 0,0.29854 -0.1139,0.55398 -0.3416,0.76634 -0.2247,0.20928 -0.497,0.31392 -0.8171,0.31392 z M 53.9558,15.5 V 6.04545 h 2.2574 v 3.57777 h 0.0462 C 56.3517,9.40779 56.4825,9.20005 56.6518,9 c 0.1723,-0.20005 0.3909,-0.36316 0.6555,-0.48935 0.2678,-0.12926 0.5879,-0.19389 0.9603,-0.19389 0.4924,0 0.9525,0.12926 1.3803,0.38778 0.4309,0.25853 0.7786,0.65708 1.0433,1.19567 0.2647,0.53859 0.397,1.22489 0.397,2.05899 0,0.8032 -0.1277,1.4757 -0.3831,2.0174 -0.2524,0.5416 -0.594,0.9479 -1.0249,1.2187 -0.4278,0.2708 -0.9033,0.4063 -1.4265,0.4063 -0.357,0 -0.6663,-0.0585 -0.9279,-0.1755 -0.2616,-0.1169 -0.4816,-0.2708 -0.6602,-0.4616 -0.1754,-0.1908 -0.3108,-0.3955 -0.4062,-0.614 H 56.1902 V 15.5 Z m 2.2113,-3.5455 c 0,0.3817 0.0508,0.7141 0.1523,0.9972 0.1047,0.2831 0.2539,0.5032 0.4478,0.6602 0.197,0.1538 0.4324,0.2308 0.7063,0.2308 0.277,0 0.5125,-0.077 0.7064,-0.2308 0.1938,-0.157 0.34,-0.3771 0.4385,-0.6602 0.1016,-0.2831 0.1524,-0.6155 0.1524,-0.9972 0,-0.3816 -0.0508,-0.7124 -0.1524,-0.9925 -0.0985,-0.2801 -0.2447,-0.497 -0.4385,-0.6509 -0.1909,-0.1539 -0.4263,-0.2308 -0.7064,-0.2308 -0.277,0 -0.5124,0.0754 -0.7063,0.2262 -0.1939,0.1508 -0.3431,0.3662 -0.4478,0.6463 -0.1015,0.28 -0.1523,0.614 -0.1523,1.0017 z M 64.5287,6.04545 V 15.5 H 62.2712 V 6.04545 Z m 4.7515,9.58845 c -0.7417,0 -1.3819,-0.1462 -1.9205,-0.4386 -0.5355,-0.2954 -0.9479,-0.7155 -1.2372,-1.2603 -0.2862,-0.5478 -0.4293,-1.1987 -0.4293,-1.9528 0,-0.7324 0.1446,-1.3726 0.4339,-1.9204 0.2893,-0.55091 0.6971,-0.97871 1.2234,-1.28339 0.5263,-0.30777 1.1464,-0.46165 1.8604,-0.46165 0.5048,0 0.9664,0.07848 1.385,0.23544 0.4185,0.15696 0.7802,0.38932 1.0848,0.69709 0.3047,0.30776 0.5417,0.68785 0.711,1.14031 0.1692,0.4493 0.2539,0.9648 0.2539,1.5465 v 0.5632 h -6.163 v -1.3111 h 4.0625 c -0.0031,-0.24 -0.06,-0.4539 -0.1708,-0.6417 -0.1108,-0.1877 -0.2632,-0.3339 -0.4571,-0.4385 -0.1908,-0.1078 -0.4108,-0.16162 -0.6601,-0.16162 -0.2524,0 -0.4786,0.05692 -0.6786,0.17082 -0.2001,0.1108 -0.3586,0.2631 -0.4755,0.457 -0.117,0.1908 -0.1785,0.4078 -0.1847,0.6509 v 1.3342 c 0,0.2893 0.0569,0.5432 0.1708,0.7617 0.1139,0.2155 0.2755,0.3832 0.4847,0.5032 0.2093,0.12 0.4586,0.1801 0.7479,0.1801 0.2001,0 0.3816,-0.0277 0.5448,-0.0831 0.1631,-0.0554 0.3031,-0.137 0.4201,-0.2447 0.1169,-0.1077 0.2046,-0.2401 0.2631,-0.397 l 2.0728,0.06 c -0.0862,0.4647 -0.2755,0.8694 -0.5678,1.2141 -0.2893,0.3416 -0.6694,0.6079 -1.1403,0.7987 -0.4709,0.1877 -1.0156,0.2816 -1.6342,0.2816 z"
         fill="#ffffff"
         id="path2"
         style="display:none" />
    </g>
  </g>
  <rect
     x="0.60000002"
     y="0.60000002"
     width="77.800003"
     height="19.799999"
     rx="4.4000001"
     stroke="url(#paint0_linear_2013_84)"
     stroke-opacity="0.88"
     stroke-width="1.2"
     id="rect4"
     style="stroke:url(#paint0_linear_2013_84)" />
  <defs
     id="defs10">
    <filter
       id="filter0_d_2013_84"
       x="-0.60028201"
       y="-3.10028"
       width="27.2006"
       height="27.2006"
       filterUnits="userSpaceOnUse"
       color-interpolation-filters="sRGB">
      <feFlood
         flood-opacity="0"
         result="BackgroundImageFix"
         id="feFlood4" />
      <feColorMatrix
         in="SourceAlpha"
         type="matrix"
         values="0 0 0 0 0 0 0 0 0 0 0 0 0 0 0 0 0 0 127 0"
         result="hardAlpha"
         id="feColorMatrix4" />
      <feOffset
         id="feOffset4" />
      <feGaussianBlur
         stdDeviation="2.80014"
         id="feGaussianBlur4" />
      <feComposite
         in2="hardAlpha"
         operator="out"
         id="feComposite4" />
      <feColorMatrix
         type="matrix"
         values="0 0 0 0 0 0 0 0 0 0 0 0 0 0 0 0 0 0 0.25 0"
         id="feColorMatrix5" />
      <feBlend
         mode="normal"
         in2="BackgroundImageFix"
         result="effect1_dropShadow_2013_84"
         id="feBlend5" />
      <feBlend
         mode="normal"
         in="SourceGraphic"
         in2="effect1_dropShadow_2013_84"
         result="shape"
         id="feBlend6" />
    </filter>
    <filter
       id="filter1_d_2013_84"
       x="17.2857"
       y="-3.2142899"
       width="62.4286"
       height="27.4286"
       filterUnits="userSpaceOnUse"
       color-interpolation-filters="sRGB">
      <feFlood
         flood-opacity="0"
         result="BackgroundImageFix"
         id="feFlood6" />
      <feColorMatrix
         in="SourceAlpha"
         type="matrix"
         values="0 0 0 0 0 0 0 0 0 0 0 0 0 0 0 0 0 0 127 0"
         result="hardAlpha"
         id="feColorMatrix6" />
      <feOffset
         id="feOffset6" />
      <feGaussianBlur
         stdDeviation="2.85714"
         id="feGaussianBlur6" />
      <feComposite
         in2="hardAlpha"
         operator="out"
         id="feComposite6" />
      <feColorMatrix
         type="matrix"
         values="0 0 0 0 0 0 0 0 0 0 0 0 0 0 0 0 0 0 0.25 0"
         id="feColorMatrix7" />
      <feBlend
         mode="normal"
         in2="BackgroundImageFix"
         result="effect1_dropShadow_2013_84"
         id="feBlend7" />
      <feBlend
         mode="normal"
         in="SourceGraphic"
         in2="effect1_dropShadow_2013_84"
         result="shape"
         id="feBlend8" />
    </filter>
    <linearGradient
       id="paint0_linear_2013_84"
       x1="0"
       y1="10.5"
       x2="79"
       y2="10.5"
       gradientUnits="userSpaceOnUse">
      <stop
         stop-color="#6F2C10"
         id="stop8" />
      <stop
         offset="1"
         stop-color="#925B28"
         id="stop9" />
    </linearGradient>
    <clipPath
       id="clip0_2013_84">
      <rect
         width="79"
         height="21"
         rx="5"
         fill="#ffffff"
         id="rect9"
         x="0"
         y="0" />
    </clipPath>
    <clipPath
       id="clip1_2013_84">
      <rect
         width="16"
         height="11"
         fill="#ffffff"
         transform="translate(5,5)"
         id="rect10"
         x="0"
         y="0" />
    </clipPath>
  </defs>
  <text
     xml:space="preserve"
     style="font-size:12.8686px;letter-spacing:-0.321676px;display:inline;fill:#ffffff;fill-opacity:1;stroke-width:1.07239"
     x="25.188618"
     y="15.258766"
     id="text10"
     transform="scale(0.99320509,1.0068414)"><tspan
       sodipodi:role="line"
       id="tspan10"
       x="25.188618"
       y="15.258766"
       style="font-style:normal;font-variant:normal;font-weight:bold;font-stretch:normal;font-family:Roboto;-inkscape-font-specification:'Roboto Bold';letter-spacing:-0.321676px;stroke-width:1.07239"
       dx="0">Ужасно</tspan></text>
</svg>
